<svg xmlns="http://www.w3.org/2000/svg" width="744" height="15" viewBox="0 0 196.85 3.9687501"><g fill="#171731"><path d="M0 0h6.615v2.646H0zM6.615 0h6.615v1.852H6.615z"/><path d="M13.229 0h6.615v2.91h-6.615zM19.844 0h6.615v1.058h-6.615z"/><path d="M26.458 0h6.615v2.117h-6.615zM33.073 0h6.615v2.91h-6.615zM39.688 0h6.615v2.117h-6.615z"/><path d="M46.302 0h6.879v3.175h-6.879zM53.181 0h6.35v2.117h-6.35zM59.531 0h6.615v2.38h-6.615zM66.146 0h6.615v.794h-6.615z"/><path d="M72.76 0h6.615v1.323H72.76zM79.375 0h6.615v2.38h-6.615zM85.99 0h6.615v1.588H85.99z"/><path d="M92.604 0h6.615v2.117h-6.615zM99.219 0h6.615v1.323h-6.615z"/><path d="M105.833 0h7.938v2.91h-7.938zM113.771 0h7.673v2.38h-7.673zM121.444 0H127v2.91h-5.556zM127 0h7.938v2.117H127zM134.938 0h5.027v2.646h-5.027zM139.965 0h6.879v1.852h-6.879zM146.844 0h5.821v2.38h-5.821zM152.665 0h8.731v1.058h-8.731zM161.396 0h5.027v2.117h-5.027zM166.423 0h2.646v1.588h-2.646zM169.069 0h5.292v2.646h-5.292z"/><path d="M174.36 0h4.498v2.38h-4.498zM178.858 0h5.821v3.44h-5.821zM184.679 0h3.969v2.38h-3.969zM188.648 0h8.202v3.175h-8.202z"/></g></svg>